<?xml version="1.0" standalone="no"?>
<!DOCTYPE svg PUBLIC "-//W3C//DTD SVG 20010904//EN"
 "http://www.w3.org/TR/2001/REC-SVG-20010904/DTD/svg10.dtd">
<svg version="1.0" xmlns="http://www.w3.org/2000/svg"
 width="1340.000000pt" height="1340.000000pt" viewBox="0 0 1340.000000 1340.000000"
 preserveAspectRatio="xMidYMid meet">
<metadata>
Created by potrace 1.14, written by Peter Selinger 2001-2017
</metadata>
<g transform="translate(0.000000,1340.000000) scale(0.100000,-0.100000)"
fill="#000000" stroke="none">
<path d="M1390 12796 c0 -8 -5 -18 -12 -22 -7 -5 -9 -2 -4 7 4 8 1 6 -7 -4
-11 -14 -16 -15 -20 -5 -4 11 -6 11 -6 0 -1 -7 -6 -10 -11 -7 -6 4 -9 1 -8 -6
2 -6 -3 -14 -11 -17 -9 -3 -11 0 -6 8 5 9 4 11 -3 6 -7 -4 -12 -14 -12 -22 0
-9 -5 -12 -12 -8 -8 5 -9 2 -5 -10 5 -11 3 -15 -5 -10 -8 5 -9 2 -4 -11 6 -16
4 -16 -11 -4 -15 13 -16 12 -11 -9 6 -20 4 -22 -10 -10 -13 11 -15 11 -9 -4 4
-12 -4 -25 -23 -42 -28 -23 -42 -44 -21 -32 5 4 4 -5 -2 -19 -7 -14 -16 -25
-22 -25 -5 0 -3 -5 5 -10 10 -6 11 -10 2 -10 -12 0 -12 28 -12 -7894 0 -1529
3 -1932 13 -1938 7 -5 8 -8 1 -8 -6 0 -11 -7 -11 -15 0 -8 4 -12 9 -9 4 3 8
-4 8 -15 0 -10 6 -22 13 -24 9 -4 9 -6 -1 -6 -10 -1 -10 -5 2 -17 9 -8 13 -21
9 -27 -4 -7 -1 -7 9 1 14 12 16 10 11 -10 -4 -19 -3 -20 7 -8 10 12 11 11 7
-8 -5 -19 -3 -21 9 -11 10 8 14 8 14 1 0 -6 7 -9 15 -6 9 4 15 0 15 -7 0 -10
2 -11 8 -2 5 8 15 7 37 -3 17 -8 22 -12 13 -10 -10 3 -19 2 -22 -2 -2 -4 7 -9
21 -10 14 -1 32 -10 40 -20 8 -9 12 -11 8 -4 -4 7 0 12 9 12 8 0 16 -5 18 -11
5 -15 72 -28 92 -17 11 6 16 5 16 -4 0 -7 3 -8 9 -2 6 5 53 7 111 4 58 -3 105
-1 111 4 6 6 9 5 9 -4 0 -9 3 -10 9 -4 6 5 46 7 91 4 45 -3 85 -1 91 4 6 6 9
5 9 -3 0 -10 3 -11 13 -3 8 7 18 7 27 2 9 -5 19 -5 27 2 9 7 13 7 13 -2 0 -9
4 -9 13 -2 8 7 18 7 27 2 9 -5 19 -5 27 2 9 7 13 7 13 -2 0 -9 4 -9 13 -2 8 7
18 7 27 2 9 -5 19 -5 27 2 9 7 13 7 13 -2 0 -9 4 -9 13 -2 8 7 18 7 27 2 9 -5
19 -5 27 2 9 7 13 7 13 -2 0 -9 4 -9 13 -2 8 7 18 7 27 2 9 -5 19 -5 27 2 9 7
13 7 13 -2 0 -9 4 -9 13 -2 8 7 18 7 27 2 9 -5 19 -5 27 2 9 7 13 7 13 -2 0
-9 4 -9 13 -2 8 7 18 7 27 2 9 -5 19 -5 27 2 10 8 13 7 13 -3 0 -9 3 -10 11
-2 6 6 25 7 49 3 24 -4 43 -3 49 3 8 8 11 7 11 -3 0 -9 3 -10 9 -4 6 5 53 7
111 4 58 -3 105 -1 111 4 6 6 9 5 9 -4 0 -9 3 -10 9 -4 6 5 53 7 111 4 58 -3
105 -1 111 4 6 6 9 5 9 -4 0 -9 3 -11 10 -4 6 6 35 7 70 4 35 -3 64 -2 70 4 7
7 10 5 10 -4 0 -9 3 -10 9 -4 6 5 53 7 111 4 58 -3 105 -1 111 4 6 6 9 5 9 -4
0 -9 3 -10 9 -4 6 5 53 7 111 4 58 -3 105 -1 111 4 6 6 9 5 9 -4 0 -10 3 -11
11 -3 6 6 25 7 49 3 24 -4 43 -3 49 3 8 8 11 7 11 -2 0 -10 3 -11 14 -2 10 8
16 9 21 1 4 -7 12 -7 26 0 14 8 20 8 23 -2 2 -7 7 -21 10 -30 3 -10 1 -18 -5
-18 -6 0 -8 -4 -5 -9 4 -5 0 -12 -6 -14 -10 -4 -9 -8 2 -16 12 -8 12 -11 1
-11 -9 0 -12 -8 -9 -25 3 -14 2 -25 -2 -25 -4 0 -11 -7 -14 -16 -3 -8 -2 -12
4 -9 6 3 10 1 10 -4 0 -6 -4 -11 -10 -11 -6 0 -10 -27 -10 -60 0 -41 -4 -60
-12 -60 -9 0 -8 -4 2 -10 11 -7 12 -10 2 -10 -10 0 -13 -19 -10 -80 2 -44 0
-80 -3 -80 -3 0 -4 -14 -1 -30 2 -17 9 -30 16 -30 6 0 4 -5 -4 -10 -10 -6 -11
-10 -2 -10 6 0 12 -7 12 -16 0 -8 5 -12 11 -8 8 4 9 0 4 -15 -5 -15 -2 -21 9
-21 9 0 16 -8 16 -18 0 -11 9 -27 20 -37 11 -10 20 -13 20 -8 0 6 -7 13 -15
17 -8 3 -15 10 -15 16 0 6 10 2 22 -10 12 -11 26 -20 30 -20 5 0 7 -4 4 -9 -7
-11 12 -18 46 -17 14 1 25 -1 22 -5 -2 -4 5 -9 16 -12 11 -3 18 -1 14 4 -3 5
0 9 5 9 6 0 11 -7 11 -15 0 -15 16 -19 53 -16 9 1 17 -3 17 -9 0 -7 6 -8 18
-1 11 6 27 5 47 -3 17 -7 36 -11 43 -9 6 3 12 -1 12 -7 0 -10 3 -10 14 -1 10
8 16 9 21 1 3 -6 11 -8 16 -4 5 3 17 0 26 -8 12 -9 15 -9 9 -1 -5 9 -2 11 8 7
9 -3 16 -10 16 -16 0 -5 6 -6 12 -1 20 12 38 12 38 1 0 -6 7 -8 15 -4 8 3 15
1 15 -4 0 -5 7 -6 17 -3 12 5 14 3 8 -8 -7 -12 -6 -12 7 -1 12 9 18 10 23 2 5
-8 11 -8 21 1 8 7 14 7 14 1 0 -5 7 -13 16 -16 8 -3 13 -2 10 3 -4 5 3 7 14 4
11 -3 17 -9 14 -14 -7 -12 3 -11 27 1 14 8 19 7 19 -1 0 -8 4 -8 15 1 9 7 15
8 15 2 0 -5 7 -13 16 -16 9 -4 13 -2 8 5 -3 6 5 3 20 -6 18 -12 26 -13 26 -5
0 8 8 7 26 -5 15 -9 23 -12 20 -6 -5 7 -1 9 8 5 9 -3 16 -10 16 -16 0 -5 6 -6
12 -2 21 13 62 10 75 -6 10 -12 12 -13 13 -1 0 11 5 10 20 -4 12 -11 20 -13
20 -6 0 9 5 9 20 1 13 -7 20 -7 20 -1 0 6 7 8 15 5 8 -4 13 -10 10 -14 -3 -5
4 -6 15 -3 13 3 20 0 20 -8 0 -9 3 -10 10 -3 12 12 70 6 70 -7 0 -5 7 -5 17
-2 12 5 14 3 8 -8 -7 -12 -6 -12 7 -1 10 8 19 9 22 3 7 -10 24 -10 43 2 6 4
15 2 19 -4 5 -8 3 -9 -6 -4 -8 5 -11 4 -7 -3 4 -5 17 -8 29 -4 13 3 19 1 15
-5 -3 -5 0 -10 8 -10 8 0 15 4 15 8 0 4 9 5 20 2 11 -3 18 -9 15 -12 -2 -4 2
-8 10 -8 8 0 12 4 9 9 -3 4 2 5 10 2 9 -3 16 -11 16 -16 0 -6 6 -6 14 1 10 9
16 9 21 1 5 -8 11 -7 23 2 12 10 14 10 8 1 -7 -13 3 -17 37 -14 9 1 17 -1 17
-6 0 -4 20 -7 44 -7 24 1 56 -4 71 -12 20 -10 32 -11 47 -3 11 6 22 8 26 5 3
-3 -1 -6 -9 -7 -8 0 4 -6 26 -13 25 -8 47 -9 58 -4 11 6 17 5 17 -3 0 -6 7 -9
15 -5 8 3 15 1 15 -4 0 -5 7 -6 17 -3 9 4 14 2 10 -3 -6 -11 44 -10 61 0 6 3
12 2 14 -3 1 -6 17 -12 33 -15 17 -2 32 -5 35 -6 3 -1 11 -3 18 -4 7 0 17 -8
23 -16 10 -13 10 -13 6 1 -3 9 1 16 9 16 7 0 10 -5 7 -10 -4 -6 3 -8 15 -5 12
4 22 2 22 -3 0 -5 11 -4 25 1 14 5 25 6 25 1 0 -5 7 -12 16 -15 8 -3 12 -2 9
4 -3 6 1 7 9 4 9 -3 16 -10 16 -15 0 -6 7 -6 18 0 10 5 24 6 32 2 8 -4 24 -7
35 -7 11 1 26 -5 34 -12 10 -10 16 -10 21 -2 5 8 11 8 21 -2 8 -7 23 -13 34
-12 11 0 27 -3 35 -7 8 -4 22 -3 32 2 12 6 18 6 18 0 0 -5 8 -10 18 -10 15 0
47 -6 62 -11 14 -6 36 -4 47 3 6 4 14 3 19 -4 5 -8 3 -9 -6 -4 -8 5 -11 4 -7
-2 4 -6 18 -8 32 -5 14 2 25 0 25 -6 0 -6 10 -9 22 -7 12 3 26 -1 30 -8 6 -9
8 -9 8 2 0 10 5 10 25 -3 14 -9 25 -13 25 -8 0 10 30 9 48 -2 7 -4 16 -5 19
-2 4 3 14 -1 24 -10 12 -11 19 -12 24 -4 5 8 11 8 19 0 7 -5 26 -11 42 -12 16
-1 34 -4 39 -7 15 -8 28 -8 47 1 10 5 20 4 24 -4 5 -7 3 -8 -6 -3 -8 5 -11 4
-6 -3 3 -6 22 -9 41 -7 19 2 35 -2 35 -7 0 -6 6 -5 15 2 12 10 15 10 15 0 0
-7 7 -10 15 -6 8 3 15 1 15 -4 0 -5 7 -6 17 -3 12 5 14 3 8 -8 -7 -12 -6 -12
7 -1 9 7 19 9 22 4 3 -5 15 -12 26 -15 11 -3 18 -2 15 2 -2 4 2 8 10 8 8 0 12
-3 10 -7 -3 -4 21 -10 53 -13 71 -8 90 -11 98 -19 3 -4 17 -3 30 2 13 5 24 6
24 1 0 -5 7 -12 16 -15 10 -4 13 -2 9 7 -4 6 1 3 9 -7 9 -11 16 -14 16 -8 0
10 5 10 20 2 15 -8 20 -8 20 2 0 6 7 3 16 -8 8 -10 13 -13 9 -7 -4 9 -1 11 9
7 9 -3 13 -11 9 -18 -4 -6 0 -6 9 2 12 9 18 10 23 2 5 -8 10 -8 20 0 9 8 17 7
28 -5 10 -10 18 -12 22 -5 4 7 12 7 18 2 7 -4 25 -9 41 -10 16 -1 36 -8 44
-15 13 -9 14 -9 8 1 -4 7 -1 12 9 12 9 0 13 -5 10 -10 -4 -6 3 -9 17 -6 13 2
28 0 33 -4 17 -12 46 -20 41 -12 -3 5 1 9 9 9 8 0 12 -3 10 -7 -3 -4 26 -10
63 -13 37 -4 68 -11 70 -17 3 -8 8 -7 17 0 10 8 15 8 20 0 5 -8 11 -7 21 1 12
10 15 10 12 -1 -2 -9 6 -15 22 -15 14 0 31 -4 38 -8 7 -5 12 -4 12 2 0 7 6 8
18 2 39 -19 80 -28 95 -20 10 6 21 4 31 -7 9 -8 16 -10 16 -4 0 7 6 8 19 1 10
-6 21 -7 25 -4 3 3 6 1 6 -5 0 -6 11 -9 25 -6 16 3 25 0 25 -8 0 -10 2 -10 9
0 7 11 11 10 24 -2 10 -11 18 -12 22 -6 5 8 11 7 21 -1 11 -9 14 -8 14 2 1 11
3 11 13 -1 7 -8 21 -15 32 -14 11 0 30 -3 41 -7 13 -4 26 -3 33 4 8 8 11 8 11
-1 0 -7 7 -12 16 -12 8 0 12 5 9 10 -10 16 1 11 16 -7 12 -14 12 -16 0 -8 -10
5 -12 4 -7 -3 5 -9 13 -9 26 -2 21 11 50 4 50 -14 0 -6 8 -2 17 9 13 16 15 17
10 3 -6 -16 1 -18 53 -18 39 0 64 -5 74 -15 10 -10 17 -12 21 -5 5 8 11 8 20
0 9 -8 15 -8 20 0 4 7 12 5 22 -5 14 -14 17 -14 29 2 13 17 14 17 8 1 -5 -15
0 -18 36 -18 22 0 39 -4 36 -8 -3 -5 1 -9 9 -9 8 0 12 4 9 9 -3 4 2 5 10 2 9
-3 16 -11 16 -16 0 -6 6 -6 14 1 9 8 16 8 20 2 4 -5 18 -8 32 -5 16 3 23 1 19
-6 -3 -5 -2 -10 4 -10 5 0 12 6 14 13 4 9 6 9 6 0 1 -7 14 -13 30 -13 17 0 32
-4 36 -10 3 -5 12 -7 20 -3 9 3 22 0 29 -6 10 -9 16 -9 21 -1 5 8 11 8 20 0 8
-7 19 -9 25 -5 6 4 17 1 25 -5 8 -6 18 -9 24 -6 5 3 12 0 14 -6 4 -9 6 -9 6
-1 1 13 42 5 53 -11 5 -8 8 -7 8 2 0 6 5 12 11 12 5 0 7 -5 3 -12 -5 -7 -2 -9
8 -5 9 3 21 0 27 -6 8 -8 11 -8 11 2 0 10 7 9 26 -4 15 -9 23 -12 20 -6 -5 7
-1 9 8 5 9 -3 16 -11 16 -17 0 -7 3 -8 10 -1 5 5 26 8 46 6 27 -3 34 -8 30
-21 -5 -14 -4 -14 7 1 12 15 16 16 35 3 14 -10 23 -12 27 -5 4 7 11 7 18 2 19
-14 49 -23 42 -12 -9 15 2 12 19 -6 10 -10 16 -11 16 -3 0 9 3 9 14 0 10 -8
16 -9 21 -1 4 6 12 7 24 0 12 -6 22 -5 29 2 9 9 12 9 12 -1 0 -7 5 -9 12 -5 7
5 30 8 50 7 21 -1 38 3 38 8 0 5 3 9 8 8 15 -2 52 14 52 22 0 5 7 9 16 9 8 0
13 4 10 9 -6 9 22 26 36 23 5 -1 7 4 5 11 -1 6 3 11 10 10 8 -2 10 4 6 14 -5
13 -2 15 12 10 15 -6 16 -5 5 8 -8 10 -9 15 -1 15 6 0 11 5 11 10 0 6 8 28 18
48 9 20 17 52 17 70 0 17 3 32 6 32 3 0 5 11 4 25 -2 14 0 25 5 25 4 0 6 11 5
25 -2 14 0 25 3 25 4 0 7 10 8 23 1 36 15 131 21 140 3 5 7 23 8 40 3 30 7 48
18 102 3 11 8 48 12 83 4 34 10 64 14 67 4 2 7 20 6 40 0 19 2 35 5 35 3 0 6
10 7 23 1 21 10 72 13 72 1 0 4 20 6 44 3 25 9 50 15 57 7 8 7 14 -1 19 -8 5
-8 11 0 20 7 8 9 19 5 25 -3 5 -2 10 4 10 6 0 8 7 4 16 -3 9 0 20 8 25 12 8
12 11 -1 19 -10 6 -11 10 -2 10 7 0 12 14 12 36 0 19 5 44 10 54 7 13 7 21 0
25 -8 5 -7 11 1 21 6 7 9 31 7 53 -2 22 -1 39 2 39 18 -1 21 4 9 19 -10 11
-10 14 -1 9 9 -5 12 3 12 28 0 22 5 36 13 36 7 0 8 3 2 8 -14 10 -18 35 -4 27
8 -5 10 7 8 43 -3 39 -1 48 10 44 11 -4 11 -1 1 18 -8 15 -8 20 -1 16 7 -5 11
8 11 38 0 25 5 48 10 51 6 3 10 12 10 18 0 7 -4 6 -10 -3 -6 -9 -10 -10 -10
-3 0 6 5 15 10 18 6 3 10 22 10 41 0 20 5 34 13 34 8 0 7 4 -3 10 -12 8 -12
10 -1 10 9 0 12 9 9 30 -3 16 -1 30 3 30 4 0 5 9 2 20 -3 11 -1 20 5 20 6 0 9
9 7 20 -2 11 0 20 4 20 4 0 6 13 3 30 -2 16 0 30 5 30 6 0 11 23 12 52 1 29 6
55 12 59 8 4 7 9 -2 13 -11 5 -11 7 -2 12 7 3 13 21 13 40 0 20 5 34 13 34 7
0 8 3 2 8 -14 10 -18 35 -4 26 8 -5 10 2 7 25 -2 17 -1 31 3 31 4 0 5 9 2 20
-3 11 -1 20 5 20 6 0 9 9 7 20 -2 11 -1 20 4 20 4 0 5 16 3 35 -3 24 0 35 9
35 8 0 5 6 -7 15 -10 9 -13 14 -5 13 15 -3 22 20 22 70 0 18 3 31 8 28 4 -3 8
1 8 9 0 8 -5 11 -11 8 -6 -4 -5 1 3 10 7 9 11 26 8 37 -3 11 -1 20 5 20 5 0 6
5 3 10 -3 5 -1 10 6 10 8 0 7 5 -2 17 -12 14 -12 16 0 8 11 -6 13 -1 9 24 -2
17 -1 31 3 31 4 0 6 9 4 20 -2 11 1 20 7 20 6 0 8 9 5 20 -3 11 -2 20 2 20 4
0 6 13 3 30 -3 21 0 30 9 30 11 0 11 2 -1 10 -10 6 -11 10 -2 10 8 0 12 16 12
44 0 25 5 48 10 51 8 5 7 12 -2 23 -10 12 -10 14 0 8 9 -5 12 6 12 43 0 34 4
51 13 51 8 0 7 4 -3 10 -10 6 -11 10 -2 10 7 0 12 14 12 35 0 21 5 35 13 35 7
0 8 3 2 8 -13 9 -18 35 -5 27 6 -4 10 11 10 39 0 30 4 46 13 46 8 0 7 4 -3 10
-13 9 -13 10 0 10 13 0 13 1 0 10 -10 6 -11 10 -2 10 7 0 12 15 12 40 0 25 5
40 13 40 8 0 7 4 -3 11 -11 8 -12 12 -2 16 6 2 12 20 12 38 0 19 5 37 10 40 8
5 7 12 -2 23 -10 12 -10 14 0 8 9 -5 12 4 12 33 0 26 5 41 13 41 8 0 7 4 -3
10 -10 6 -11 10 -2 10 8 0 12 19 12 61 0 33 4 58 8 55 5 -3 9 1 9 9 0 8 -5 11
-11 8 -6 -3 -5 0 2 8 6 7 12 28 12 47 0 21 4 31 11 26 7 -4 7 1 -1 16 -8 15
-8 20 -1 16 7 -5 11 8 11 38 0 29 4 46 12 46 6 0 3 7 -8 15 -13 11 -14 14 -4
13 11 -2 15 6 15 30 0 17 3 32 7 32 4 0 5 9 3 20 -2 13 0 18 7 14 7 -4 9 9 7
40 -2 25 -1 46 3 46 5 0 7 6 6 13 -2 6 4 11 12 9 10 -1 9 2 -4 13 -11 8 -14
15 -8 15 7 0 12 16 12 40 0 25 5 40 13 40 8 0 8 3 -2 9 -12 8 -12 12 -2 25 7
8 10 20 6 26 -3 5 -2 10 3 10 6 0 8 10 4 22 -3 15 -2 19 7 14 14 -9 11 16 -4
26 -6 5 -5 8 3 8 8 0 12 16 12 46 0 33 3 43 13 38 8 -5 8 -2 -2 9 -9 11 -10
17 -2 17 7 0 11 20 11 50 0 33 4 50 13 50 8 0 7 4 -3 10 -12 8 -12 10 -1 10 9
0 12 9 9 30 -3 17 -1 30 3 30 4 0 6 9 4 20 -2 11 1 20 7 20 6 0 8 9 5 20 -3
11 -2 20 1 20 9 0 7 54 -3 69 -6 10 -3 11 15 1 18 -10 21 -10 14 1 -10 18 -5
70 8 87 6 7 8 15 4 19 -3 3 -6 0 -6 -7 0 -7 -3 -10 -6 -7 -4 4 -1 13 6 22 7 8
11 32 8 54 -2 30 0 37 11 33 11 -4 11 -1 1 18 -8 15 -8 20 -1 16 7 -5 11 9 11
43 0 34 4 51 13 51 8 0 7 4 -3 10 -10 6 -11 10 -2 10 7 0 12 15 12 40 0 25 5
40 13 40 8 0 7 4 -3 10 -12 8 -12 10 -1 10 9 0 12 9 9 30 -3 16 -1 30 3 30 4
0 5 9 2 20 -3 11 -1 20 5 20 6 0 9 9 7 20 -2 11 0 20 4 20 4 0 5 14 3 31 -3
20 0 34 9 40 8 5 9 9 3 9 -6 0 -11 7 -11 15 0 8 4 12 9 9 4 -3 8 20 8 51 0 33
4 54 9 50 6 -3 8 4 6 15 -2 11 0 20 5 20 4 0 6 10 2 22 -3 12 -1 19 5 15 5 -3
10 0 10 8 0 8 -5 11 -11 8 -6 -4 -5 1 3 10 7 9 11 30 9 47 -3 16 -1 30 3 30 4
0 6 9 4 20 -2 11 0 18 6 15 5 -4 9 17 9 50 0 31 4 54 8 51 5 -3 9 1 9 9 0 8
-5 15 -11 15 -6 0 -5 4 3 9 9 6 12 20 9 40 -2 17 -1 31 3 31 4 0 6 9 4 20 -2
11 1 20 7 20 6 0 8 9 5 20 -3 11 -1 20 3 20 4 0 6 9 3 20 -3 13 0 20 8 20 11
0 11 2 -1 10 -10 6 -11 10 -2 10 8 0 12 17 12 50 0 33 4 50 13 50 8 0 7 4 -3
10 -10 6 -11 10 -2 10 8 0 12 17 12 51 0 34 4 48 11 43 7 -4 7 1 -1 16 -10 19
-10 22 1 18 11 -4 13 5 10 40 -2 29 0 42 7 38 7 -4 9 1 7 14 -2 11 -1 20 3 20
4 0 6 21 5 46 -1 38 2 44 15 40 13 -5 12 -2 -2 9 -11 8 -14 15 -8 15 7 0 12
16 12 39 0 22 5 43 10 46 8 5 7 12 -2 23 -10 12 -10 14 0 8 9 -5 12 6 12 44 0
28 4 49 8 46 5 -3 9 1 9 9 0 8 -5 11 -11 8 -6 -4 -5 1 2 10 8 9 11 20 8 26 -3
5 1 12 10 15 13 5 14 9 5 20 -8 10 -9 16 -1 21 5 3 10 24 10 45 0 21 5 42 10
45 8 5 7 12 -2 23 -10 12 -10 14 0 8 9 -5 12 5 12 38 0 30 4 46 13 46 8 0 7 3
-3 10 -12 7 -12 12 -2 22 6 6 12 25 12 40 0 16 6 28 13 28 8 0 7 4 -3 11 -11
8 -12 12 -2 16 7 3 12 23 12 48 0 24 5 47 10 50 6 3 10 12 10 18 0 7 -4 6 -10
-3 -6 -9 -10 -10 -10 -3 0 6 4 15 10 18 5 3 10 24 10 46 0 24 5 39 13 39 7 0
8 3 2 8 -14 10 -18 35 -4 26 8 -5 10 2 7 25 -2 17 -1 31 3 31 4 0 6 9 4 21 -3
13 0 19 8 16 9 -3 11 10 9 49 -3 40 0 54 10 54 10 0 9 3 -2 10 -10 6 -11 10
-2 10 8 0 12 15 12 43 0 24 6 49 12 55 10 10 10 15 -2 22 -10 7 -11 10 -2 10
8 0 12 16 12 46 0 25 4 43 8 40 5 -3 9 1 9 9 0 8 -5 11 -11 8 -6 -3 -5 0 2 8
6 7 12 30 12 51 0 24 5 38 13 38 8 0 7 3 -3 10 -12 7 -12 12 -2 22 6 6 12 25
12 40 0 16 6 28 13 28 8 0 7 3 -3 10 -12 7 -12 12 -2 22 6 6 12 32 12 56 0 27
4 41 10 37 13 -8 8 18 -5 27 -6 5 -5 8 3 8 7 0 12 14 12 35 0 21 5 35 13 35 8
0 7 4 -3 10 -10 6 -11 10 -2 10 7 0 12 15 12 39 0 22 5 42 13 44 9 4 8 8 -3
16 -12 8 -12 11 -1 11 9 0 12 8 9 25 -3 14 -2 25 2 25 4 0 6 14 5 31 -2 22 1
29 11 25 10 -4 11 0 4 19 -7 17 -6 25 1 25 7 0 6 6 -2 17 -8 9 -9 14 -3 10 15
-9 25 28 12 41 -6 6 -5 14 5 23 8 7 12 21 9 31 -2 10 2 26 9 35 12 15 12 16
-1 8 -12 -7 -11 -3 2 17 11 17 14 29 8 33 -7 4 -7 13 0 25 6 11 8 31 6 45 -3
14 0 25 6 25 6 0 8 9 5 20 -3 11 -1 20 4 20 4 0 6 7 3 15 -4 8 -1 15 5 15 6 0
11 5 11 11 0 5 -6 7 -12 3 -10 -6 -10 -4 0 8 10 13 10 17 0 21 -10 4 -10 6 0
6 6 1 12 14 12 29 0 15 5 33 12 40 8 8 8 15 -2 27 -8 10 -9 15 -1 15 6 0 11
17 11 41 0 22 4 38 8 35 5 -3 9 1 9 9 0 8 -5 11 -11 8 -6 -4 -5 0 2 9 7 8 13
40 15 71 1 35 6 52 12 47 7 -6 8 34 5 118 -6 125 -13 162 -32 162 -5 0 -7 4
-3 9 3 6 -7 22 -22 37 -16 15 -19 21 -8 13 19 -13 19 -13 6 4 -8 10 -20 16
-28 13 -11 -4 -11 -1 -3 14 8 15 8 18 -3 14 -8 -3 -19 2 -26 10 -7 8 -19 12
-27 9 -8 -3 -14 -1 -14 5 0 6 -8 9 -17 7 -10 -1 -28 4 -40 11 -16 10 -23 11
-23 3 0 -8 -4 -8 -13 -1 -7 6 -26 13 -42 16 -17 2 -30 5 -30 6 0 1 -10 3 -23
4 -12 2 -28 8 -34 14 -7 7 -19 7 -34 2 -17 -7 -28 -5 -39 6 -8 9 -15 11 -15 4
0 -6 -11 -5 -30 5 -23 12 -30 12 -30 3 0 -11 -2 -11 -8 0 -12 18 -72 34 -72
19 0 -8 -3 -8 -12 1 -7 7 -17 8 -29 2 -12 -7 -20 -6 -25 2 -5 7 -3 8 6 3 8 -5
11 -4 7 3 -4 5 -17 8 -29 4 -14 -3 -19 -2 -14 6 9 14 -3 15 -24 2 -9 -5 -19
-5 -27 2 -8 6 -13 6 -13 1 0 -5 -7 -10 -15 -10 -8 0 -12 4 -10 8 3 3 -4 9 -15
12 -11 3 -18 1 -14 -4 3 -5 1 -9 -4 -9 -6 0 -13 7 -16 15 -4 13 -10 14 -26 5
-11 -6 -20 -7 -20 -1 0 5 -7 12 -16 15 -8 3 -13 2 -10 -2 3 -5 -1 -9 -9 -9 -8
0 -12 4 -9 8 2 4 0 10 -5 13 -5 4 -12 2 -16 -4 -4 -7 -12 -7 -25 0 -11 6 -21
6 -24 1 -3 -5 -21 -5 -40 -1 -22 5 -38 4 -45 -3 -8 -8 -11 -8 -11 0 0 6 -7 14
-16 17 -8 3 -12 2 -9 -3 3 -5 -9 -2 -27 7 -32 15 -43 17 -125 23 -23 1 -40 6
-37 10 3 5 -2 6 -10 3 -9 -3 -16 -1 -16 5 0 7 -8 8 -25 1 -14 -5 -25 -6 -25
-1 0 5 -10 7 -22 3 -12 -3 -19 -1 -15 4 3 5 -7 9 -21 8 -15 -1 -31 1 -37 5 -5
3 -21 6 -35 7 -39 2 -42 3 -34 15 4 8 0 8 -15 0 -16 -9 -21 -9 -21 0 0 8 -4 8
-15 -1 -12 -10 -15 -10 -15 4 0 9 -5 16 -11 16 -5 0 -7 -6 -3 -12 6 -9 3 -9
-9 0 -9 8 -20 11 -26 8 -5 -3 -12 0 -14 6 -4 9 -6 9 -6 1 -1 -8 -10 -9 -31 -3
-19 5 -30 5 -30 -1 0 -6 -5 -7 -10 -4 -6 4 -8 10 -6 14 3 4 -1 8 -9 8 -8 0
-12 -4 -9 -9 3 -4 -2 -5 -10 -2 -9 3 -16 11 -16 16 0 6 -6 6 -14 -1 -9 -8 -16
-8 -20 -2 -4 5 -18 8 -32 5 -16 -3 -23 -1 -19 6 3 5 1 10 -4 10 -6 0 -11 -6
-11 -12 0 -9 -3 -10 -8 -2 -11 16 -50 24 -56 10 -3 -7 -5 -7 -5 2 -1 6 -9 12
-19 12 -10 0 -23 5 -30 12 -9 9 -12 9 -12 -1 0 -10 -3 -11 -14 -2 -10 8 -16 9
-21 1 -4 -6 -12 -5 -22 6 -13 12 -17 13 -24 2 -7 -10 -9 -10 -9 0 0 8 -9 11
-25 8 -14 -3 -25 -1 -25 3 0 9 -31 8 -48 -3 -11 -6 -16 -2 -14 15 1 3 -5 6
-13 6 -8 0 -12 -4 -9 -9 3 -4 -2 -5 -10 -2 -9 3 -16 11 -16 16 0 6 -6 5 -15
-2 -12 -10 -15 -10 -15 0 0 8 -3 10 -7 7 -3 -4 -13 -1 -21 6 -11 8 -13 8 -9 0
5 -7 0 -9 -13 -6 -11 3 -17 9 -14 14 7 13 -19 7 -28 -6 -5 -6 -8 -5 -8 3 0 7
-4 10 -10 7 -5 -3 -10 -2 -10 4 0 6 -7 8 -15 5 -8 -4 -22 -1 -29 5 -10 8 -16
9 -21 1 -4 -7 -13 -5 -27 5 -19 13 -23 12 -35 -3 -12 -16 -13 -16 -7 2 6 16 2
18 -39 15 -25 -2 -43 -1 -41 2 2 4 -3 10 -12 13 -8 3 -12 2 -9 -4 3 -6 -1 -7
-9 -4 -9 3 -16 10 -16 15 0 5 -12 4 -26 -1 -31 -12 -37 -12 -30 -1 9 14 -20
21 -34 8 -10 -9 -11 -9 -6 1 5 8 -1 12 -16 13 -30 2 -30 2 -52 -7 -13 -5 -17
-4 -13 3 4 6 -2 13 -13 16 -13 3 -18 1 -13 -6 4 -8 2 -8 -9 0 -8 7 -18 10 -21
6 -4 -3 -7 -1 -7 7 0 10 -3 10 -15 0 -8 -7 -15 -8 -15 -3 0 5 -8 9 -17 10 -26
2 -46 7 -60 16 -6 4 -15 3 -18 -3 -5 -8 -11 -7 -21 1 -8 6 -22 9 -32 7 -10 -3
-23 1 -30 9 -9 9 -18 10 -31 3 -14 -7 -22 -6 -31 5 -7 8 -18 15 -24 15 -6 0
-4 -5 4 -10 9 -6 10 -10 3 -10 -6 0 -15 5 -19 11 -3 6 -17 8 -30 5 -15 -4 -24
-2 -24 5 0 8 -4 8 -15 -1 -12 -10 -15 -10 -15 0 0 7 -7 10 -15 6 -8 -3 -15 -1
-15 4 0 5 -7 7 -15 4 -8 -4 -22 -1 -29 5 -10 8 -16 9 -21 1 -4 -7 -11 -5 -21
5 -10 9 -34 15 -64 15 -36 0 -52 5 -60 18 -9 13 -10 13 -7 1 3 -9 -1 -16 -9
-16 -7 0 -10 5 -7 10 4 6 -3 8 -15 5 -12 -4 -22 -2 -22 3 0 5 -11 4 -25 -1
-14 -5 -25 -6 -25 -1 0 5 -7 12 -16 15 -10 4 -13 2 -9 -7 4 -6 -1 -3 -9 7 -9
11 -16 14 -16 8 0 -10 -5 -10 -20 -2 -15 8 -20 8 -20 -2 0 -9 -3 -9 -10 2 -5
8 -10 11 -10 6 0 -4 -11 -1 -25 8 -14 9 -25 12 -25 6 0 -8 -6 -7 -20 0 -15 8
-20 8 -20 -2 0 -9 -3 -9 -10 2 -5 8 -10 11 -10 6 0 -5 -7 -3 -15 4 -12 10 -15
10 -15 -1 0 -9 -3 -10 -8 -3 -10 16 -51 24 -58 12 -4 -6 -9 -6 -14 2 -5 7 -19
14 -32 14 -12 1 -29 5 -35 9 -7 5 -17 6 -21 3 -5 -3 -20 1 -34 8 -15 8 -31 10
-39 5 -7 -4 -17 -5 -22 -2 -6 3 -23 6 -39 5 -15 0 -26 3 -23 8 3 5 1 11 -4 14
-5 4 -13 1 -17 -5 -5 -8 -3 -9 6 -4 9 6 11 4 6 -4 -6 -9 -12 -9 -24 3 -12 10
-22 12 -35 5 -14 -8 -17 -6 -17 11 0 11 -6 20 -13 20 -7 0 -13 9 -13 20 0 11
3 20 6 20 3 0 4 196 2 435 -2 336 -5 435 -15 435 -8 0 -7 4 3 11 11 8 12 12 3
16 -7 2 -13 13 -13 24 0 10 -6 19 -12 19 -9 0 -8 4 2 10 10 6 11 10 3 10 -8 0
-13 15 -13 40 0 22 -4 40 -10 40 -5 0 -10 5 -10 11 0 5 5 7 12 3 7 -4 8 -3 4
5 -4 6 -12 9 -17 6 -5 -4 -14 6 -19 20 -6 15 -22 30 -40 36 -16 6 -28 14 -26
18 3 4 -11 6 -29 6 -19 -1 -32 2 -29 7 5 8 -9 12 -33 9 -7 -1 -13 3 -13 10 0
9 -3 9 -14 0 -10 -9 -16 -9 -21 -1 -5 8 -11 8 -21 -1 -11 -9 -14 -9 -14 0 0 8
-5 9 -19 1 -14 -7 -22 -7 -26 0 -5 8 -11 8 -20 0 -10 -8 -15 -8 -20 0 -5 8
-10 8 -20 0 -10 -8 -15 -8 -20 0 -5 8 -11 8 -21 -1 -11 -9 -14 -9 -14 0 0 8
-5 9 -19 1 -14 -7 -22 -7 -26 0 -5 8 -11 8 -20 0 -10 -8 -15 -8 -20 0 -5 8
-10 8 -20 0 -10 -8 -15 -8 -20 0 -5 8 -11 8 -21 -1 -11 -9 -14 -9 -14 0 0 8
-5 9 -19 1 -14 -7 -22 -7 -26 0 -5 8 -11 8 -20 0 -10 -8 -15 -8 -20 0 -5 8
-10 8 -20 0 -9 -8 -15 -8 -20 0 -4 7 -12 7 -25 0 -13 -7 -21 -7 -25 0 -4 7
-13 7 -26 0 -10 -6 -19 -7 -19 -2 0 5 -7 9 -15 9 -8 0 -15 -3 -15 -7 0 -9 -32
-6 -48 4 -7 4 -12 2 -12 -4 0 -6 -5 -8 -12 -4 -16 10 -48 13 -48 4 0 -8 -37
-6 -46 3 -4 3 -15 2 -25 -4 -11 -5 -19 -6 -19 -1 0 5 -7 9 -15 9 -8 0 -15 -3
-15 -7 0 -9 -32 -6 -48 4 -7 4 -12 2 -12 -4 0 -6 -5 -8 -12 -4 -16 10 -48 13
-48 4 0 -8 -37 -6 -46 3 -4 3 -15 2 -25 -4 -11 -5 -19 -6 -19 -1 0 5 -7 9 -15
9 -8 0 -15 -3 -15 -7 0 -9 -32 -6 -48 4 -7 4 -12 2 -12 -4 0 -6 -5 -8 -12 -4
-16 10 -48 13 -48 4 0 -8 -37 -6 -46 3 -4 3 -15 2 -25 -4 -11 -5 -19 -6 -19
-1 0 5 -7 9 -15 9 -8 0 -15 -3 -15 -7 0 -9 -32 -6 -48 4 -7 4 -12 2 -12 -4 0
-6 -5 -8 -12 -4 -16 10 -48 13 -48 4 0 -8 -37 -6 -46 3 -4 3 -15 2 -25 -4 -11
-5 -19 -6 -19 -1 0 5 -7 9 -15 9 -8 0 -15 -3 -15 -7 0 -9 -32 -6 -48 4 -7 4
-12 2 -12 -4 0 -6 -5 -8 -12 -4 -16 10 -48 13 -48 4 0 -8 -37 -6 -46 3 -4 3
-15 2 -25 -4 -14 -7 -19 -6 -19 3 0 9 -3 9 -10 -2 -7 -11 -10 -11 -10 -2 0 9
-5 10 -19 2 -14 -7 -22 -7 -26 0 -5 8 -11 8 -20 0 -10 -8 -15 -8 -20 0 -5 8
-10 8 -20 0 -10 -8 -15 -8 -20 0 -5 8 -11 8 -21 -1 -11 -9 -14 -9 -14 0 0 8
-5 9 -19 1 -14 -7 -22 -7 -26 0 -5 8 -11 8 -20 0 -10 -8 -15 -8 -20 0 -5 8
-10 8 -20 0 -10 -8 -15 -8 -20 0 -5 8 -11 8 -21 -1 -11 -9 -14 -9 -14 0 0 8
-5 9 -19 1 -14 -7 -22 -7 -26 0 -5 8 -11 8 -20 0 -10 -8 -15 -8 -20 0 -5 8
-10 8 -20 0 -10 -8 -15 -8 -20 0 -5 8 -11 8 -21 -1 -11 -9 -14 -9 -14 0 0 8
-5 9 -19 1 -14 -7 -22 -7 -26 0 -5 8 -11 8 -20 0 -10 -8 -15 -8 -20 0 -5 8
-10 8 -20 0 -9 -8 -15 -8 -20 0 -4 7 -12 7 -25 0 -13 -7 -21 -7 -25 0 -4 7
-13 7 -26 0 -10 -6 -19 -7 -19 -2 0 5 -7 9 -15 9 -8 0 -15 -3 -15 -7 0 -9 -32
-6 -48 4 -7 4 -12 2 -12 -4 0 -6 -5 -8 -12 -4 -16 10 -48 13 -48 4 0 -8 -37
-6 -46 3 -4 3 -15 2 -25 -4 -11 -5 -19 -6 -19 -1 0 5 -7 9 -15 9 -8 0 -15 -3
-15 -7 0 -9 -32 -6 -48 4 -7 4 -12 2 -12 -4 0 -6 -5 -8 -12 -4 -16 10 -48 13
-48 4 0 -8 -37 -6 -46 3 -4 3 -15 2 -25 -4 -11 -5 -19 -6 -19 -1 0 5 -7 9 -15
9 -8 0 -15 -3 -15 -7 0 -9 -32 -6 -48 4 -7 4 -12 2 -12 -4 0 -6 -5 -8 -12 -4
-16 10 -48 13 -48 4 0 -8 -37 -6 -46 3 -4 3 -15 2 -25 -4 -11 -5 -19 -6 -19
-1 0 5 -7 9 -15 9 -8 0 -15 -3 -15 -7 0 -9 -32 -6 -48 4 -7 4 -12 2 -12 -4 0
-6 -5 -8 -12 -4 -16 10 -48 13 -48 4 0 -8 -37 -6 -46 3 -4 3 -15 2 -25 -4 -11
-5 -19 -6 -19 -1 0 5 -7 9 -15 9 -8 0 -15 -3 -15 -7 0 -9 -32 -6 -48 4 -7 4
-12 2 -12 -4 0 -6 -5 -8 -12 -4 -16 10 -48 13 -48 4 0 -8 -37 -6 -46 3 -4 3
-15 2 -25 -4 -14 -7 -19 -6 -19 3 0 9 -3 9 -10 -2 -7 -11 -10 -11 -10 -2 0 9
-5 10 -19 2 -14 -7 -22 -7 -26 0 -5 8 -11 8 -20 0 -10 -8 -15 -8 -20 0 -5 8
-10 8 -20 0 -10 -8 -15 -8 -20 0 -5 8 -11 8 -21 -1 -11 -9 -14 -9 -14 0 0 8
-5 9 -19 1 -14 -7 -22 -7 -26 0 -5 8 -11 8 -20 0 -10 -8 -15 -8 -20 0 -5 8
-10 8 -20 0 -10 -8 -15 -8 -20 0 -5 8 -11 8 -21 -1 -11 -9 -14 -9 -14 0 0 8
-5 9 -19 1 -14 -7 -22 -7 -26 0 -5 8 -11 8 -20 0 -10 -8 -15 -8 -20 0 -5 8
-10 8 -20 0 -10 -8 -15 -8 -20 0 -5 8 -11 8 -21 -1 -11 -9 -14 -9 -14 0 0 8
-5 9 -19 1 -14 -7 -22 -7 -26 0 -5 8 -11 8 -20 0 -10 -8 -15 -8 -20 0 -5 8
-10 8 -20 0 -9 -8 -15 -8 -20 0 -4 7 -12 7 -25 0 -13 -7 -21 -7 -25 0 -4 7
-13 7 -26 0 -10 -6 -19 -7 -19 -2 0 5 -7 9 -15 9 -8 0 -15 -3 -15 -7 0 -9 -32
-6 -48 4 -7 4 -12 2 -12 -4 0 -6 -5 -8 -12 -4 -16 10 -48 13 -48 4 0 -8 -37
-6 -46 3 -4 3 -15 2 -25 -4 -11 -5 -19 -6 -19 -1 0 5 -7 9 -15 9 -8 0 -15 -3
-15 -7 0 -9 -32 -6 -48 4 -7 4 -12 2 -12 -4 0 -6 -5 -8 -12 -4 -16 10 -48 13
-48 4 0 -8 -37 -6 -46 3 -4 3 -15 2 -25 -4 -11 -5 -19 -6 -19 -1 0 5 -7 9 -15
9 -8 0 -15 -3 -15 -7 0 -9 -32 -6 -48 4 -7 4 -12 2 -12 -4 0 -6 -5 -8 -12 -4
-16 10 -48 13 -48 4 0 -8 -37 -6 -46 3 -4 3 -15 2 -25 -4 -11 -5 -19 -6 -19
-1 0 5 -7 9 -15 9 -8 0 -15 -3 -15 -7 0 -9 -32 -6 -48 4 -7 4 -12 2 -12 -4 0
-6 -5 -8 -12 -4 -16 10 -48 13 -48 4 0 -8 -37 -6 -46 3 -4 3 -15 2 -25 -4 -11
-5 -19 -6 -19 -1 0 5 -7 9 -15 9 -8 0 -15 -3 -15 -7 0 -9 -32 -6 -48 4 -7 4
-12 2 -12 -4 0 -6 -5 -8 -12 -4 -16 10 -48 13 -48 4 0 -8 -37 -6 -46 3 -4 3
-15 2 -25 -4 -14 -7 -19 -6 -19 3 0 9 -3 9 -10 -2 -7 -11 -10 -11 -10 -2 0 9
-5 10 -19 2 -14 -7 -22 -7 -26 0 -5 8 -11 8 -20 0 -10 -8 -15 -8 -20 0 -5 8
-10 8 -20 0 -10 -8 -15 -8 -20 0 -5 8 -11 8 -21 -1 -11 -9 -14 -9 -14 0 0 8
-5 9 -19 1 -14 -7 -22 -7 -26 0 -5 8 -11 8 -20 0 -10 -8 -15 -8 -20 0 -5 8
-10 8 -20 0 -10 -8 -15 -8 -20 0 -5 8 -11 8 -21 -1 -11 -9 -14 -9 -14 0 0 8
-5 9 -19 1 -14 -7 -22 -7 -26 0 -5 8 -11 8 -20 0 -10 -8 -15 -8 -20 0 -5 8
-10 8 -20 0 -9 -8 -15 -8 -20 0 -4 7 -12 7 -25 0 -13 -7 -21 -7 -25 0 -9 15
-25 12 -25 -4z m6347 -76 c3 -10 2 -11 -4 -4 -4 6 -15 14 -23 17 -11 5 -9 6 4
4 11 -1 21 -9 23 -17z m4074 -1857 c13 -16 12 -17 -3 -4 -17 13 -22 21 -14 21
2 0 10 -8 17 -17z m-1644 -8448 c0 -8 -4 -12 -9 -9 -5 3 -6 10 -3 15 9 13 12
11 12 -6z"/>
<path d="M1203 12663 c4 -3 1 -13 -6 -22 -11 -14 -10 -14 5 -2 16 12 16 31 1
31 -4 0 -3 -3 0 -7z"/>
</g>
</svg>
